<svg xmlns="http://www.w3.org/2000/svg" width="34.25" height="30" viewBox="0 0 34.25 30">
  <g id="Grupo_749" data-name="Grupo 749" transform="translate(-25 -133)">
    <path id="Caminho_8" data-name="Caminho 8" d="M8.874,11.587a.607.607,0,0,0,.665-.471c.941-2.533,1.9-5.067,2.838-7.614a1.149,1.149,0,0,1,1.052-.886c.568-.028.941.249,1.177.928l2.949,8.265c.6,1.661,1.191,3.323,1.814,5.067.152-.208.263-.36.374-.512.928-1.384,1.855-2.783,2.783-4.181a1.228,1.228,0,0,1,1.08-.623H34.236V2.907A2.907,2.907,0,0,0,31.329,0H2.907A2.916,2.916,0,0,0,0,2.907v8.666C2.533,11.56,7.407,11.56,8.874,11.587Z" transform="translate(25.014 133)" fill="#b81e27"/>
    <path id="Caminho_9" data-name="Caminho 9" d="M24.612,57.542a.862.862,0,0,0-.844.443c-1.218,1.855-2.464,3.7-3.683,5.551a1.254,1.254,0,0,1-1.232.734c-.6-.069-.844-.485-1.024-1Q15.71,57.293,13.55,51.312c-.042-.138-.111-.263-.208-.512l-2.132,5.676c-.346.941-.568,1.094-1.564,1.094H-.1v7.337h0a2.907,2.907,0,0,0,2.907,2.907H7.2v4.5a1.456,1.456,0,0,0,1.467,1.454,1.412,1.412,0,0,0,1.024-.429l5.51-5.51H31.229a2.907,2.907,0,0,0,2.907-2.907V57.584C31.8,57.57,26.231,57.57,24.612,57.542Z" transform="translate(25.1 89.233)" fill="#b81e27"/>
  </g>
</svg>
